<svg width="100" height="100" viewBox="0 0 100 100" fill="none" xmlns="http://www.w3.org/2000/svg">
<path fill-rule="evenodd" clip-rule="evenodd" d="M48.1019 77.7289C48.3943 79.9186 50.4065 81.4566 52.5962 81.1641L57.3417 80.5303C59.5314 80.2378 61.0694 78.2256 60.777 76.036L59.299 64.9708L67.9078 71.5508C69.6629 72.8923 72.1733 72.557 73.5148 70.8019L76.4222 66.9981C77.7638 65.2429 77.4285 62.7326 75.6733 61.391L67.4414 55.099L77.8418 53.7099C80.0315 53.4174 81.5695 51.4053 81.277 49.2156L80.6432 44.47C80.3507 42.2803 78.3385 40.7423 76.1488 41.0348L64.2386 42.6256L71.5508 33.059C72.8923 31.3038 72.557 28.7935 70.8019 27.4519L66.9981 24.5445C65.2429 23.203 62.7326 23.5383 61.391 25.2934L55.099 33.5253L53.7099 23.125C53.4175 20.9353 51.4053 19.3973 49.2156 19.6897L44.47 20.3236C42.2803 20.616 40.7423 22.6282 41.0348 24.8179L42.5368 36.0633L33.2624 28.9745C31.5073 27.6329 28.9969 27.9682 27.6554 29.7234L24.748 33.5272C23.4064 35.2823 23.7417 37.7927 25.4969 39.1342L35.148 46.511L23.2378 48.1018C21.0482 48.3943 19.5101 50.4065 19.8026 52.5962L20.4364 57.3417C20.7289 59.5314 22.7411 61.0694 24.9308 60.777L35.3311 59.3878L28.9745 67.7043C27.6329 69.4595 27.9682 71.9698 29.7234 73.3114L33.5272 76.2188C35.2823 77.5603 37.7927 77.225 39.1342 75.4699L46.5111 65.8187L48.1019 77.7289ZM50.4834 46.2208C48.1292 46.2208 46.2208 48.1292 46.2208 50.4834C46.2208 52.8375 48.1292 54.7459 50.4834 54.7459C52.8375 54.7459 54.7459 52.8375 54.7459 50.4834C54.7459 48.1292 52.8375 46.2208 50.4834 46.2208Z" fill="white"/>
</svg>
