<svg width="450" height="100" viewBox="0 0 450 100" fill="none" xmlns="http://www.w3.org/2000/svg">
<path d="M125.384 72.768C120.776 72.768 116.851 71.7653 113.608 69.76C110.365 67.7547 107.891 65.024 106.184 61.568C104.477 58.0693 103.624 54.1013 103.624 49.664C103.624 45.2267 104.456 41.2587 106.12 37.76C107.784 34.2613 110.237 31.5093 113.48 29.504C116.723 27.456 120.691 26.432 125.384 26.432C130.76 26.432 135.155 27.776 138.568 30.464C142.024 33.1093 144.179 36.8427 145.032 41.664H136.008C135.453 39.232 134.259 37.3333 132.424 35.968C130.632 34.56 128.243 33.856 125.256 33.856C122.525 33.856 120.157 34.496 118.152 35.776C116.189 37.056 114.675 38.8693 113.608 41.216C112.541 43.5627 112.008 46.3787 112.008 49.664C112.008 52.9067 112.541 55.7227 113.608 58.112C114.675 60.4587 116.189 62.272 118.152 63.552C120.157 64.7893 122.525 65.408 125.256 65.408C128.243 65.408 130.632 64.768 132.424 63.488C134.259 62.1653 135.453 60.352 136.008 58.048H145.032C144.179 62.656 142.024 66.2613 138.568 68.864C135.155 71.4667 130.76 72.768 125.384 72.768ZM166.056 72.768C162.856 72.768 159.997 72.0853 157.48 70.72C155.005 69.312 153.064 67.3493 151.656 64.832C150.248 62.3147 149.544 59.4133 149.544 56.128C149.544 52.672 150.29 49.7067 151.784 47.232C153.32 44.7147 155.346 42.7947 157.864 41.472C160.424 40.1493 163.24 39.488 166.312 39.488C169.512 39.488 172.37 40.192 174.888 41.6C177.405 42.9653 179.389 44.8853 180.84 47.36C182.333 49.8347 183.08 52.7573 183.08 56.128C183.08 59.328 182.354 62.1867 180.904 64.704C179.453 67.2213 177.448 69.2053 174.888 70.656C172.37 72.064 169.426 72.768 166.056 72.768ZM166.184 65.664C167.89 65.664 169.362 65.2373 170.6 64.384C171.88 63.488 172.882 62.3147 173.608 60.864C174.333 59.3707 174.696 57.7493 174.696 56C174.696 53.9947 174.29 52.288 173.48 50.88C172.712 49.472 171.688 48.4053 170.408 47.68C169.128 46.9547 167.72 46.592 166.184 46.592C164.52 46.592 163.048 46.9973 161.768 47.808C160.53 48.6187 159.549 49.7493 158.824 51.2C158.141 52.608 157.8 54.2507 157.8 56.128C157.8 58.0053 158.162 59.6693 158.888 61.12C159.656 62.5707 160.68 63.7013 161.96 64.512C163.24 65.28 164.648 65.664 166.184 65.664ZM187.818 72V40.256H195.946V43.904C197.012 42.4107 198.378 41.3013 200.042 40.576C201.706 39.8507 203.455 39.488 205.29 39.488C207.679 39.488 209.898 40 211.946 41.024C214.036 42.0053 215.658 43.5627 216.81 45.696C217.876 43.7333 219.348 42.2187 221.226 41.152C223.146 40.0427 225.236 39.488 227.498 39.488C229.93 39.488 232.127 40 234.09 41.024C236.095 42.0053 237.674 43.52 238.826 45.568C239.978 47.616 240.554 50.176 240.554 53.248V72H232.426V54.4C232.426 52.0107 231.85 50.112 230.698 48.704C229.546 47.296 227.775 46.592 225.386 46.592C223.039 46.592 221.268 47.296 220.074 48.704C218.879 50.112 218.282 52.0107 218.282 54.4V72H210.154V54.4C210.154 51.968 209.535 50.0693 208.298 48.704C207.103 47.296 205.375 46.592 203.114 46.592C201.194 46.592 199.508 47.2107 198.058 48.448C196.65 49.6427 195.946 51.6267 195.946 54.4V72H187.818ZM245.818 86.08V40.256H253.946V44.672C255.183 42.9653 256.719 41.6853 258.554 40.832C260.431 39.936 262.458 39.488 264.634 39.488C267.706 39.488 270.33 40.2347 272.506 41.728C274.724 43.2213 276.41 45.2267 277.562 47.744C278.756 50.2187 279.354 52.9707 279.354 56C279.354 59.0293 278.756 61.824 277.562 64.384C276.367 66.944 274.66 68.992 272.442 70.528C270.266 72.0213 267.663 72.768 264.634 72.768C261.946 72.768 259.706 72.2133 257.914 71.104C256.164 69.9947 254.863 68.8427 254.01 67.648V86.08H245.818ZM262.458 65.6C264.164 65.6 265.658 65.1733 266.938 64.32C268.218 63.424 269.22 62.2507 269.946 60.8C270.671 59.3493 271.034 57.7493 271.034 56C271.034 53.9947 270.628 52.3093 269.818 50.944C269.05 49.536 268.004 48.4693 266.682 47.744C265.402 47.0187 263.994 46.656 262.458 46.656C260.836 46.656 259.386 47.0613 258.106 47.872C256.826 48.6827 255.802 49.8133 255.034 51.264C254.308 52.672 253.946 54.2933 253.946 56.128C253.946 57.8773 254.308 59.4773 255.034 60.928C255.759 62.3787 256.762 63.5307 258.042 64.384C259.322 65.1947 260.794 65.6 262.458 65.6ZM283.755 72V27.2H291.947V72H283.755ZM312.611 72.768C309.283 72.768 306.403 72.0427 303.97 70.592C301.581 69.1413 299.725 67.1573 298.403 64.64C297.08 62.1227 296.419 59.2853 296.419 56.128C296.419 52.7573 297.101 49.8347 298.467 47.36C299.832 44.8853 301.731 42.9653 304.163 41.6C306.595 40.192 309.411 39.488 312.611 39.488C315.768 39.488 318.52 40.1707 320.867 41.536C323.256 42.9013 325.112 44.7787 326.435 47.168C327.8 49.5573 328.483 52.3093 328.483 55.424C328.483 55.9787 328.461 56.5333 328.419 57.088C328.376 57.6 328.312 58.0907 328.227 58.56H304.675C304.803 60.0533 305.187 61.376 305.827 62.528C306.509 63.6373 307.405 64.512 308.515 65.152C309.667 65.7493 310.968 66.048 312.419 66.048C313.912 66.048 315.192 65.728 316.259 65.088C317.368 64.448 318.243 63.4667 318.883 62.144H327.651C327.053 64.0213 326.093 65.7707 324.771 67.392C323.448 69.0133 321.763 70.3147 319.715 71.296C317.709 72.2773 315.341 72.768 312.611 72.768ZM304.739 53.12H320.035C319.992 50.9867 319.203 49.3013 317.667 48.064C316.173 46.8267 314.403 46.208 312.355 46.208C310.605 46.208 308.984 46.7627 307.491 47.872C305.997 48.9387 305.08 50.688 304.739 53.12ZM328.25 72L338.746 56.064L328.122 40.256H337.338L343.866 50.048L349.818 40.256H358.522L347.962 56.064L358.65 72H349.498L342.842 62.144L336.954 72H328.25ZM366.359 36.16C364.908 36.16 363.649 35.648 362.583 34.624C361.559 33.5573 361.047 32.2987 361.047 30.848C361.047 29.3547 361.559 28.096 362.583 27.072C363.649 26.048 364.908 25.536 366.359 25.536C367.852 25.536 369.111 26.048 370.135 27.072C371.159 28.096 371.671 29.3547 371.671 30.848C371.671 32.2987 371.159 33.5573 370.135 34.624C369.111 35.648 367.852 36.16 366.359 36.16ZM362.263 72V40.256H370.455V72H362.263ZM388.923 72C385.509 72 382.928 71.168 381.179 69.504C379.472 67.84 378.619 65.344 378.619 62.016V47.104H374.523V40.256H378.619V32.512H386.811V40.256H394.043V47.104H386.811V62.08C386.811 63.2747 387.131 64.0853 387.771 64.512C388.411 64.9387 389.243 65.152 390.267 65.152H394.043V72H388.923ZM401.824 86.08L408.8 70.528L395.936 40.256H405.088L413.28 61.888L421.664 40.256H430.304L410.464 86.08H401.824Z" fill="#343434"/>
<path fill-rule="evenodd" clip-rule="evenodd" d="M48.1018 77.7289C48.3943 79.9186 50.4065 81.4566 52.5962 81.1642L57.3417 80.5303C59.5314 80.2379 61.0694 78.2257 60.777 76.036L59.299 64.9708L67.9078 71.5508C69.6629 72.8923 72.1733 72.557 73.5148 70.8019L76.4222 66.9981C77.7638 65.2429 77.4285 62.7326 75.6733 61.391L67.4414 55.099L77.8418 53.7099C80.0315 53.4175 81.5695 51.4053 81.277 49.2156L80.6432 44.47C80.3507 42.2803 78.3385 40.7423 76.1488 41.0348L64.2386 42.6256L71.5508 33.059C72.8923 31.3038 72.557 28.7935 70.8019 27.4519L66.9981 24.5445C65.2429 23.203 62.7326 23.5383 61.391 25.2934L55.099 33.5253L53.7099 23.125C53.4175 20.9353 51.4053 19.3973 49.2156 19.6897L44.47 20.3236C42.2803 20.616 40.7423 22.6282 41.0348 24.8179L42.5368 36.0633L33.2624 28.9745C31.5073 27.6329 28.9969 27.9682 27.6554 29.7234L24.748 33.5272C23.4064 35.2823 23.7417 37.7927 25.4969 39.1342L35.148 46.5111L23.2378 48.1018C21.0482 48.3943 19.5101 50.4065 19.8026 52.5962L20.4364 57.3417C20.7289 59.5314 22.7411 61.0694 24.9308 60.777L35.3311 59.3878L28.9745 67.7043C27.6329 69.4595 27.9682 71.9698 29.7234 73.3114L33.5272 76.2188C35.2823 77.5603 37.7927 77.225 39.1342 75.4699L46.5111 65.8187L48.1018 77.7289ZM50.4834 46.2208C48.1292 46.2208 46.2208 48.1292 46.2208 50.4834C46.2208 52.8375 48.1292 54.7459 50.4834 54.7459C52.8375 54.7459 54.7459 52.8375 54.7459 50.4834C54.7459 48.1292 52.8375 46.2208 50.4834 46.2208Z" fill="#343434"/>
</svg>
